<svg width="735" height="769" viewBox="0 0 735 769" fill="none" xmlns="http://www.w3.org/2000/svg">
<path fill-rule="evenodd" clip-rule="evenodd" d="M394.316 5.89573L275.186 281.704C268.537 297.096 278.897 314.485 295.599 315.965L383.516 323.76C389.391 324.281 392.955 330.488 390.443 335.824L353.564 414.154L342.473 437.712C342.183 438.327 341.969 438.975 341.834 439.642L318.784 553.49C317.132 561.649 326.996 567.059 332.988 561.28L423.706 473.786C424.291 473.222 424.792 472.577 425.194 471.87L469.397 394.046L531.88 284.042C542.5 265.344 531.601 241.746 510.481 237.708L435.128 223.299C426.308 221.612 421.157 212.362 424.368 203.976L489.077 34.9709C489.836 32.988 489.391 30.7453 487.932 29.2025C466.383 6.4148 434.828 -4.0242 403.941 1.41623L398.85 2.31286C396.832 2.66829 395.128 4.01468 394.316 5.89573ZM312.731 433.75C312.973 432.556 313.271 431.376 313.625 430.213L28.2173 544.969C-5.76955 558.635 -10.0606 605.014 20.8422 624.684L221.306 752.275C251.685 771.611 289.904 773.855 322.337 758.209L709.378 571.489C744.602 554.496 742.877 503.755 706.58 489.194L497.209 405.203L451.012 486.535C449.205 489.715 446.951 492.62 444.319 495.159L353.601 582.652C326.636 608.658 282.248 584.315 289.682 547.598L312.731 433.75Z" fill="white"/>
</svg>
